/* XPM */
static char * App16x16_xpm[] = {
"16 16 26 1",
" 	c None",
".	c #000000",
"+	c #FF3366",
"@	c #BBBBBB",
"#	c #DDDDDD",
"$	c #FFFFFF",
"%	c #555555",
"&	c #EEEEEE",
"*	c #993366",
"=	c #000088",
"-	c #CCFF00",
";	c #FF9900",
">	c #CC3333",
",	c #888888",
"'	c #777777",
")	c #222222",
"!	c #993300",
"~	c #444444",
"{	c #660000",
"]	c #999933",
"^	c #993333",
"/	c #111111",
"(	c #FFCC66",
"_	c #CCFFFF",
":	c #CC6633",
"<	c #CC6600",
"        .+++    ",
"       @#$%++   ",
"      @&@@@%*.  ",
" ====--;>@,'*.==",
" =$=--;;;>')!.$=",
" ==--;;;;;.~{===",
" =];;;;;;^.~/$$=",
" .(_(:;;^:./..$=",
" ]__((;^:~/$$$$=",
" (_(((>:>/$...$=",
"..(((]>>/$$$$$$=",
"~..(]<>/..$...$=",
"~..>./$$$$$$$$$=",
"../...$...$...$=",
" =$$$$$$$$$$$$$=",
" ==============="};
