/* XPM */
static char * App32x32_xpm[] = {
"32 32 29 1",
" 	c None",
".	c #000000",
"+	c #FF3366",
"@	c #888888",
"#	c #555555",
"$	c #FF99FF",
"%	c #BBBBBB",
"&	c #DDDDDD",
"*	c #FFFFFF",
"=	c #993366",
"-	c #EEEEEE",
";	c #AAAAAA",
">	c #000088",
",	c #FF9900",
"'	c #CCFF00",
")	c #CC3333",
"!	c #777777",
"~	c #444444",
"{	c #993300",
"]	c #222222",
"^	c #660000",
"/	c #996600",
"(	c #111111",
"_	c #999933",
":	c #993333",
"<	c #FFCC66",
"[	c #CC6633",
"}	c #CC6600",
"|	c #CCFFFF",
"                  ......        ",
"                ..++++++.       ",
"               ..@@#+$$++.      ",
"              .%%&&*@#++++.     ",
"             .%%&**%%@#+++=.    ",
"            .%---%%%%%;#+==.    ",
"  >>>>>>>>>..,,,%-%%%;@#+==.>>>>",
"  >>>>>>>>.'''',))-%%@!!.==.>>>>",
"  >>**>>>.'''',*,,)-%!!~.={.**>>",
"  >>**>>.'''',*,,,,)%!~].{^.**>>",
"  >>>>>.'''',*,,,,,,)~]].^.>>>>>",
"  >>>>.'''',*,,,,,,,~.]~.^.>>>>>",
"  >>**'''',*,,,,,,,/~.~!..(***>>",
"  >>._,,,,*,,,,,,,/:~.!~.(****>>",
"  >._<<<,,[[,,,,,/:}~.~.(...**>>",
"  >.<<||<<_[,,,,/:}[~..(....**>>",
"  >.<|||<<<_[,,/:}[~..(*******>>",
"  ._<|||<<<<[,/:}[[~.(********>>",
"  .<<||<<<<<_):}[[).(*......**>>",
"  .<||<<<<<<<)}[[).(**......**>>",
" ._<<<<<<<<<_)[[).(***********>>",
" ...<<<<<<<__)[).(************>>",
" .;!..<<<<__})).(...**......**>>",
".~*...<<___})).(....**......**>>",
".!~....___}...(***************>>",
".~.....)...(******************>>",
"........(...**......**......**>>",
".....(......**......**......**>>",
"  >>**************************>>",
"  >>**************************>>",
"  >>>>>>>>>>>>>>>>>>>>>>>>>>>>>>",
"  >>>>>>>>>>>>>>>>>>>>>>>>>>>>>>"};
